<svg id="Icons" xmlns="http://www.w3.org/2000/svg" viewBox="0 0 60 60"><polygon points="33.133 5.957 42.668 29 50.49 29 33.133 5.957"/><path d="M19.5,31,30,56.385,40.5,31Zm5.8,5.293,2-2a1,1,0,0,1,1.414,1.414l-2,2a1,1,0,0,1-1.414-1.414Zm2.414,5.414a1,1,0,0,1-1.414-1.414l6-6a1,1,0,0,1,1.414,1.414Z"/><polygon points="42.668 31 33.133 54.044 50.49 31 42.668 31"/><path d="M19.5,29H40.5L30,3.615Zm5.8-8.707,2-2a1,1,0,0,1,1.414,1.414l-2,2a1,1,0,0,1-1.414-1.414Zm8.414-2a1,1,0,0,1,0,1.414l-6,6a1,1,0,0,1-1.414-1.414l6-6A1,1,0,0,1,33.707,18.293Z"/><polygon points="17.332 29 26.867 5.956 9.51 29 17.332 29"/><polygon points="26.867 54.043 17.332 31 9.51 31 26.867 54.043"/></svg>