<svg id="Icons" xmlns="http://www.w3.org/2000/svg" viewBox="0 0 60 60"><circle cx="30" cy="39" r="2"/><path d="M57,47H3a1,1,0,0,0-1,1v6a1,1,0,0,0,1,1H57a1,1,0,0,0,1-1V48A1,1,0,0,0,57,47Z"/><circle cx="30" cy="29" r="2"/><path d="M25,17a1,1,0,0,0-1,1V45H36V18a1,1,0,0,0-1-1H33.444A3.959,3.959,0,0,1,34,19a4,4,0,0,1-8,0,3.959,3.959,0,0,1,.556-2Zm5,26a4,4,0,1,1,4-4A4,4,0,0,1,30,43Zm0-18a4,4,0,1,1-4,4A4,4,0,0,1,30,25Z"/><circle cx="30" cy="19" r="2"/><path d="M47.12,5.006c-.029-.009-.069-.02-.11.046s-.016.091.006.115C48.377,6.741,50,9.6,50,14.271c0,3.48-.963,6.169-2.853,8.024a29.467,29.467,0,0,1,6.511,7.682A16.4,16.4,0,0,0,58,19.191,14.844,14.844,0,0,0,47.12,5.006Z"/><path d="M38,45H55.961c-.39-11.773-7.6-22.026-17.961-25.621Z"/><path d="M22,19.379C11.636,22.974,4.429,33.227,4.039,45H22Z"/><path d="M12.99,5.052a.084.084,0,0,0-.113-.045A14.843,14.843,0,0,0,2,19.191,16.4,16.4,0,0,0,6.342,29.977,29.467,29.467,0,0,1,12.853,22.3C10.963,20.44,10,17.751,10,14.271c0-4.673,1.623-7.53,2.984-9.1A.08.08,0,0,0,12.99,5.052Z"/></svg>