<svg id="Icons" xmlns="http://www.w3.org/2000/svg" viewBox="0 0 60 60"><circle cx="51" cy="51" r="2"/><circle cx="51" cy="9" r="2"/><path d="M51,2a7,7,0,1,0,6.958,7.752C57.969,9.5,58,9.251,58,9A7.009,7.009,0,0,0,51,2Zm0,11a4,4,0,1,1,4-4A4,4,0,0,1,51,13Z"/><path d="M51,44H45.53A17,17,0,0,0,44,51a7,7,0,1,0,7-7Zm0,11a4,4,0,1,1,4-4A4,4,0,0,1,51,55Z"/><path d="M9,16H45.355a8.98,8.98,0,0,1,0-14H9A7,7,0,0,0,9,16Z"/><path d="M9,58H45.355A8.985,8.985,0,0,1,42,51a19.033,19.033,0,0,1,1.8-8.045L56.392,16.193l0-.005A8.943,8.943,0,0,1,51,18H15.754L3.6,43.806A17.01,17.01,0,0,0,2,51,7.009,7.009,0,0,0,9,58ZM19,25H46a1,1,0,0,1,0,2H19a1,1,0,0,1,0-2Zm-3,6H43a1,1,0,0,1,0,2H16a1,1,0,0,1,0-2Zm-3,6H40a1,1,0,0,1,0,2H13a1,1,0,0,1,0-2Zm-3,6H37a1,1,0,0,1,0,2H10a1,1,0,0,1,0-2ZM8,49H35a1,1,0,0,1,0,2H8a1,1,0,0,1,0-2Z"/></svg>